<svg width="1032" height="761" viewBox="0 0 1032 761" fill="none" xmlns="http://www.w3.org/2000/svg">
<g clip-path="url(#clip0_122_130)" filter="url(#filter0_d_122_130)">
<rect width="1024" height="753" transform="translate(4)" fill="#121214"/>
<g opacity="0.2" filter="url(#filter1_f_122_130)">
<ellipse cx="465.5" cy="23" rx="670.5" ry="350" fill="#338AF3"/>
</g>
<path d="M-13.9651 259C-12.4698 259 -11.3378 259.63 -10.5692 260.891C-9.78659 262.138 -9.39529 263.953 -9.39529 266.336C-9.39529 268.719 -9.78659 270.541 -10.5692 271.802C-11.3378 273.063 -12.4698 273.693 -13.9651 273.693C-15.4464 273.693 -16.5784 273.063 -17.361 271.802C-18.1436 270.541 -18.5349 268.719 -18.5349 266.336C-18.5349 263.967 -18.1436 262.152 -17.361 260.891C-16.5784 259.63 -15.4464 259 -13.9651 259ZM-17.0466 266.336C-17.0466 268.026 -16.8928 269.35 -16.5854 270.306L-11.9317 261.099C-12.4209 260.448 -13.0987 260.122 -13.9651 260.122C-14.9294 260.122 -15.684 260.635 -16.229 261.66C-16.7741 262.672 -17.0466 264.23 -17.0466 266.336ZM-13.9651 272.55C-12.9869 272.55 -12.2252 272.044 -11.6802 271.033C-11.1352 270.008 -10.8627 268.442 -10.8627 266.336C-10.8627 264.549 -11.0373 263.163 -11.3867 262.18L-16.0404 271.469C-15.5373 272.19 -14.8455 272.55 -13.9651 272.55Z" fill="url(#paint0_linear_122_130)" fill-opacity="0.6"/>
<path d="M-12.7074 296.135H-9.62588V297.236H-17.6126V296.135H-14.0489V284.455L-17.4449 286.471L-18.0318 285.536L-13.8393 282.959H-12.7074V296.135Z" fill="url(#paint1_linear_122_130)" fill-opacity="0.6"/>
<path d="M-13.9651 306.502C-12.4698 306.502 -11.3378 307.133 -10.5692 308.393C-9.78659 309.64 -9.39529 311.455 -9.39529 313.838C-9.39529 316.221 -9.78659 318.043 -10.5692 319.304C-11.3378 320.565 -12.4698 321.195 -13.9651 321.195C-15.4464 321.195 -16.5784 320.565 -17.361 319.304C-18.1436 318.043 -18.5349 316.221 -18.5349 313.838C-18.5349 311.469 -18.1436 309.654 -17.361 308.393C-16.5784 307.133 -15.4464 306.502 -13.9651 306.502ZM-17.0466 313.838C-17.0466 315.529 -16.8928 316.852 -16.5854 317.808L-11.9317 308.601C-12.4209 307.95 -13.0987 307.624 -13.9651 307.624C-14.9294 307.624 -15.684 308.137 -16.229 309.162C-16.7741 310.174 -17.0466 311.732 -17.0466 313.838ZM-13.9651 320.052C-12.9869 320.052 -12.2252 319.546 -11.6802 318.535C-11.1352 317.51 -10.8627 315.944 -10.8627 313.838C-10.8627 312.051 -11.0373 310.665 -11.3867 309.682L-16.0404 318.971C-15.5373 319.692 -14.8455 320.052 -13.9651 320.052Z" fill="url(#paint2_linear_122_130)" fill-opacity="0.6"/>
<path d="M-12.7074 343.637H-9.62588V344.738H-17.6126V343.637H-14.0489V331.957L-17.4449 333.973L-18.0318 333.038L-13.8393 330.461H-12.7074V343.637Z" fill="url(#paint3_linear_122_130)" fill-opacity="0.6"/>
<path d="M-12.7074 367.388H-9.62588V368.489H-17.6126V367.388H-14.0489V355.708L-17.4449 357.724L-18.0318 356.789L-13.8393 354.212H-12.7074V367.388Z" fill="url(#paint4_linear_122_130)" fill-opacity="0.6"/>
<path d="M-13.9651 377.755C-12.4698 377.755 -11.3378 378.386 -10.5692 379.646C-9.78659 380.893 -9.39529 382.708 -9.39529 385.091C-9.39529 387.474 -9.78659 389.296 -10.5692 390.557C-11.3378 391.818 -12.4698 392.448 -13.9651 392.448C-15.4464 392.448 -16.5784 391.818 -17.361 390.557C-18.1436 389.296 -18.5349 387.474 -18.5349 385.091C-18.5349 382.722 -18.1436 380.907 -17.361 379.646C-16.5784 378.386 -15.4464 377.755 -13.9651 377.755ZM-17.0466 385.091C-17.0466 386.782 -16.8928 388.105 -16.5854 389.061L-11.9317 379.854C-12.4209 379.203 -13.0987 378.878 -13.9651 378.878C-14.9294 378.878 -15.684 379.39 -16.229 380.415C-16.7741 381.427 -17.0466 382.985 -17.0466 385.091ZM-13.9651 391.305C-12.9869 391.305 -12.2252 390.8 -11.6802 389.788C-11.1352 388.763 -10.8627 387.197 -10.8627 385.091C-10.8627 383.304 -11.0373 381.919 -11.3867 380.935L-16.0404 390.225C-15.5373 390.945 -14.8455 391.305 -13.9651 391.305Z" fill="url(#paint5_linear_122_130)" fill-opacity="0.6"/>
<path d="M-12.7074 414.89H-9.62588V415.992H-17.6126V414.89H-14.0489V403.21L-17.4449 405.226L-18.0318 404.291L-13.8393 401.714H-12.7074V414.89Z" fill="url(#paint6_linear_122_130)" fill-opacity="0.6"/>
<path d="M-13.9651 425.257C-12.4698 425.257 -11.3378 425.888 -10.5692 427.149C-9.78659 428.396 -9.39529 430.211 -9.39529 432.594C-9.39529 434.977 -9.78659 436.798 -10.5692 438.059C-11.3378 439.32 -12.4698 439.95 -13.9651 439.95C-15.4464 439.95 -16.5784 439.32 -17.361 438.059C-18.1436 436.798 -18.5349 434.977 -18.5349 432.594C-18.5349 430.224 -18.1436 428.409 -17.361 427.149C-16.5784 425.888 -15.4464 425.257 -13.9651 425.257ZM-17.0466 432.594C-17.0466 434.284 -16.8928 435.607 -16.5854 436.563L-11.9317 427.356C-12.4209 426.705 -13.0987 426.38 -13.9651 426.38C-14.9294 426.38 -15.684 426.892 -16.229 427.918C-16.7741 428.929 -17.0466 430.488 -17.0466 432.594ZM-13.9651 438.807C-12.9869 438.807 -12.2252 438.302 -11.6802 437.29C-11.1352 436.265 -10.8627 434.699 -10.8627 432.594C-10.8627 430.806 -11.0373 429.421 -11.3867 428.437L-16.0404 437.727C-15.5373 438.447 -14.8455 438.807 -13.9651 438.807Z" fill="url(#paint7_linear_122_130)" fill-opacity="0.6"/>
<path d="M-13.9651 449.008C-12.4698 449.008 -11.3378 449.639 -10.5692 450.9C-9.78659 452.147 -9.39529 453.962 -9.39529 456.345C-9.39529 458.728 -9.78659 460.549 -10.5692 461.81C-11.3378 463.071 -12.4698 463.701 -13.9651 463.701C-15.4464 463.701 -16.5784 463.071 -17.361 461.81C-18.1436 460.549 -18.5349 458.728 -18.5349 456.345C-18.5349 453.975 -18.1436 452.16 -17.361 450.9C-16.5784 449.639 -15.4464 449.008 -13.9651 449.008ZM-17.0466 456.345C-17.0466 458.035 -16.8928 459.358 -16.5854 460.314L-11.9317 451.107C-12.4209 450.456 -13.0987 450.131 -13.9651 450.131C-14.9294 450.131 -15.684 450.643 -16.229 451.669C-16.7741 452.68 -17.0466 454.239 -17.0466 456.345ZM-13.9651 462.558C-12.9869 462.558 -12.2252 462.053 -11.6802 461.041C-11.1352 460.016 -10.8627 458.451 -10.8627 456.345C-10.8627 454.557 -11.0373 453.172 -11.3867 452.188L-16.0404 461.478C-15.5373 462.198 -14.8455 462.558 -13.9651 462.558Z" fill="url(#paint8_linear_122_130)" fill-opacity="0.6"/>
<path d="M-12.7074 486.143H-9.62588V487.245H-17.6126V486.143H-14.0489V474.464L-17.4449 476.48L-18.0318 475.544L-13.8393 472.967H-12.7074V486.143Z" fill="url(#paint9_linear_122_130)" fill-opacity="0.6"/>
<path d="M-13.9651 496.511C-12.4698 496.511 -11.3378 497.141 -10.5692 498.402C-9.78659 499.649 -9.39529 501.464 -9.39529 503.847C-9.39529 506.23 -9.78659 508.052 -10.5692 509.312C-11.3378 510.573 -12.4698 511.204 -13.9651 511.204C-15.4464 511.204 -16.5784 510.573 -17.361 509.312C-18.1436 508.052 -18.5349 506.23 -18.5349 503.847C-18.5349 501.478 -18.1436 499.663 -17.361 498.402C-16.5784 497.141 -15.4464 496.511 -13.9651 496.511ZM-17.0466 503.847C-17.0466 505.537 -16.8928 506.86 -16.5854 507.816L-11.9317 498.61C-12.4209 497.958 -13.0987 497.633 -13.9651 497.633C-14.9294 497.633 -15.684 498.145 -16.229 499.171C-16.7741 500.182 -17.0466 501.741 -17.0466 503.847ZM-13.9651 510.061C-12.9869 510.061 -12.2252 509.555 -11.6802 508.543C-11.1352 507.518 -10.8627 505.953 -10.8627 503.847C-10.8627 502.059 -11.0373 500.674 -11.3867 499.69L-16.0404 508.98C-15.5373 509.7 -14.8455 510.061 -13.9651 510.061Z" fill="url(#paint10_linear_122_130)" fill-opacity="0.6"/>
<path d="M-12.7074 533.645H-9.62588V534.747H-17.6126V533.645H-14.0489V521.966L-17.4449 523.982L-18.0318 523.046L-13.8393 520.469H-12.7074V533.645Z" fill="url(#paint11_linear_122_130)" fill-opacity="0.6"/>
<path d="M-12.7074 557.396H-9.62588V558.498H-17.6126V557.396H-14.0489V545.717L-17.4449 547.733L-18.0318 546.798L-13.8393 544.221H-12.7074V557.396Z" fill="url(#paint12_linear_122_130)" fill-opacity="0.6"/>
<path d="M24.9651 306.502C26.4604 306.502 27.5924 307.133 28.361 308.393C29.1436 309.64 29.5349 311.455 29.5349 313.838C29.5349 316.221 29.1436 318.043 28.361 319.304C27.5924 320.565 26.4604 321.195 24.9651 321.195C23.4838 321.195 22.3518 320.565 21.5692 319.304C20.7866 318.043 20.3953 316.221 20.3953 313.838C20.3953 311.469 20.7866 309.654 21.5692 308.393C22.3518 307.133 23.4838 306.502 24.9651 306.502ZM21.8836 313.838C21.8836 315.529 22.0374 316.852 22.3448 317.808L26.9985 308.601C26.5093 307.95 25.8315 307.624 24.9651 307.624C24.0008 307.624 23.2462 308.137 22.7012 309.162C22.1561 310.174 21.8836 311.732 21.8836 313.838ZM24.9651 320.052C25.9433 320.052 26.705 319.546 27.25 318.535C27.795 317.51 28.0675 315.944 28.0675 313.838C28.0675 312.051 27.8928 310.665 27.5435 309.682L22.8898 318.971C23.3929 319.692 24.0847 320.052 24.9651 320.052Z" fill="url(#paint13_linear_122_130)" fill-opacity="0.6"/>
<path d="M26.2228 343.637H29.3043V344.738H21.3176V343.637H24.8812V331.957L21.4853 333.973L20.8984 333.038L25.0909 330.461H26.2228V343.637Z" fill="url(#paint14_linear_122_130)" fill-opacity="0.6"/>
<path d="M24.9651 354.004C26.4604 354.004 27.5924 354.635 28.361 355.895C29.1436 357.142 29.5349 358.957 29.5349 361.34C29.5349 363.723 29.1436 365.545 28.361 366.806C27.5924 368.067 26.4604 368.697 24.9651 368.697C23.4838 368.697 22.3518 368.067 21.5692 366.806C20.7866 365.545 20.3953 363.723 20.3953 361.34C20.3953 358.971 20.7866 357.156 21.5692 355.895C22.3518 354.635 23.4838 354.004 24.9651 354.004ZM21.8836 361.34C21.8836 363.031 22.0374 364.354 22.3448 365.31L26.9985 356.103C26.5093 355.452 25.8315 355.126 24.9651 355.126C24.0008 355.126 23.2462 355.639 22.7012 356.664C22.1561 357.676 21.8836 359.234 21.8836 361.34ZM24.9651 367.554C25.9433 367.554 26.705 367.049 27.25 366.037C27.795 365.012 28.0675 363.446 28.0675 361.34C28.0675 359.553 27.8928 358.168 27.5435 357.184L22.8898 366.474C23.3929 367.194 24.0847 367.554 24.9651 367.554Z" fill="url(#paint15_linear_122_130)" fill-opacity="0.6"/>
<path d="M24.9651 377.755C26.4604 377.755 27.5924 378.386 28.361 379.646C29.1436 380.893 29.5349 382.708 29.5349 385.091C29.5349 387.474 29.1436 389.296 28.361 390.557C27.5924 391.818 26.4604 392.448 24.9651 392.448C23.4838 392.448 22.3518 391.818 21.5692 390.557C20.7866 389.296 20.3953 387.474 20.3953 385.091C20.3953 382.722 20.7866 380.907 21.5692 379.646C22.3518 378.386 23.4838 377.755 24.9651 377.755ZM21.8836 385.091C21.8836 386.782 22.0374 388.105 22.3448 389.061L26.9985 379.854C26.5093 379.203 25.8315 378.878 24.9651 378.878C24.0008 378.878 23.2462 379.39 22.7012 380.415C22.1561 381.427 21.8836 382.985 21.8836 385.091ZM24.9651 391.305C25.9433 391.305 26.705 390.8 27.25 389.788C27.795 388.763 28.0675 387.197 28.0675 385.091C28.0675 383.304 27.8928 381.919 27.5435 380.935L22.8898 390.225C23.3929 390.945 24.0847 391.305 24.9651 391.305Z" fill="url(#paint16_linear_122_130)" fill-opacity="0.6"/>
<path d="M26.2228 414.89H29.3043V415.992H21.3176V414.89H24.8812V403.21L21.4853 405.226L20.8984 404.291L25.0909 401.714H26.2228V414.89Z" fill="url(#paint17_linear_122_130)" fill-opacity="0.6"/>
<path d="M24.9651 425.257C26.4604 425.257 27.5924 425.888 28.361 427.149C29.1436 428.396 29.5349 430.211 29.5349 432.594C29.5349 434.977 29.1436 436.798 28.361 438.059C27.5924 439.32 26.4604 439.95 24.9651 439.95C23.4838 439.95 22.3518 439.32 21.5692 438.059C20.7866 436.798 20.3953 434.977 20.3953 432.594C20.3953 430.224 20.7866 428.409 21.5692 427.149C22.3518 425.888 23.4838 425.257 24.9651 425.257ZM21.8836 432.594C21.8836 434.284 22.0374 435.607 22.3448 436.563L26.9985 427.356C26.5093 426.705 25.8315 426.38 24.9651 426.38C24.0008 426.38 23.2462 426.892 22.7012 427.918C22.1561 428.929 21.8836 430.488 21.8836 432.594ZM24.9651 438.807C25.9433 438.807 26.705 438.302 27.25 437.29C27.795 436.265 28.0675 434.699 28.0675 432.594C28.0675 430.806 27.8928 429.421 27.5435 428.437L22.8898 437.727C23.3929 438.447 24.0847 438.807 24.9651 438.807Z" fill="url(#paint18_linear_122_130)" fill-opacity="0.6"/>
<path d="M26.2228 462.392H29.3043V463.494H21.3176V462.392H24.8812V450.713L21.4853 452.728L20.8984 451.793L25.0909 449.216H26.2228V462.392Z" fill="url(#paint19_linear_122_130)" fill-opacity="0.6"/>
<path d="M24.9651 472.76C26.4604 472.76 27.5924 473.39 28.361 474.651C29.1436 475.898 29.5349 477.713 29.5349 480.096C29.5349 482.479 29.1436 484.301 28.361 485.561C27.5924 486.822 26.4604 487.453 24.9651 487.453C23.4838 487.453 22.3518 486.822 21.5692 485.561C20.7866 484.301 20.3953 482.479 20.3953 480.096C20.3953 477.726 20.7866 475.911 21.5692 474.651C22.3518 473.39 23.4838 472.76 24.9651 472.76ZM21.8836 480.096C21.8836 481.786 22.0374 483.109 22.3448 484.065L26.9985 474.859C26.5093 474.207 25.8315 473.882 24.9651 473.882C24.0008 473.882 23.2462 474.394 22.7012 475.42C22.1561 476.431 21.8836 477.99 21.8836 480.096ZM24.9651 486.31C25.9433 486.31 26.705 485.804 27.25 484.792C27.795 483.767 28.0675 482.202 28.0675 480.096C28.0675 478.308 27.8928 476.923 27.5435 475.939L22.8898 485.229C23.3929 485.949 24.0847 486.31 24.9651 486.31Z" fill="url(#paint20_linear_122_130)" fill-opacity="0.6"/>
<path d="M24.9651 496.511C26.4604 496.511 27.5924 497.141 28.361 498.402C29.1436 499.649 29.5349 501.464 29.5349 503.847C29.5349 506.23 29.1436 508.052 28.361 509.312C27.5924 510.573 26.4604 511.204 24.9651 511.204C23.4838 511.204 22.3518 510.573 21.5692 509.312C20.7866 508.052 20.3953 506.23 20.3953 503.847C20.3953 501.478 20.7866 499.663 21.5692 498.402C22.3518 497.141 23.4838 496.511 24.9651 496.511ZM21.8836 503.847C21.8836 505.537 22.0374 506.86 22.3448 507.816L26.9985 498.61C26.5093 497.958 25.8315 497.633 24.9651 497.633C24.0008 497.633 23.2462 498.145 22.7012 499.171C22.1561 500.182 21.8836 501.741 21.8836 503.847ZM24.9651 510.061C25.9433 510.061 26.705 509.555 27.25 508.543C27.795 507.518 28.0675 505.953 28.0675 503.847C28.0675 502.059 27.8928 500.674 27.5435 499.69L22.8898 508.98C23.3929 509.7 24.0847 510.061 24.9651 510.061Z" fill="url(#paint21_linear_122_130)" fill-opacity="0.6"/>
<path d="M26.2228 533.645H29.3043V534.747H21.3176V533.645H24.8812V521.966L21.4853 523.982L20.8984 523.046L25.0909 520.469H26.2228V533.645Z" fill="url(#paint22_linear_122_130)" fill-opacity="0.6"/>
<path d="M24.9651 544.013C26.4604 544.013 27.5924 544.643 28.361 545.904C29.1436 547.151 29.5349 548.966 29.5349 551.349C29.5349 553.732 29.1436 555.554 28.361 556.815C27.5924 558.075 26.4604 558.706 24.9651 558.706C23.4838 558.706 22.3518 558.075 21.5692 556.815C20.7866 555.554 20.3953 553.732 20.3953 551.349C20.3953 548.98 20.7866 547.165 21.5692 545.904C22.3518 544.643 23.4838 544.013 24.9651 544.013ZM21.8836 551.349C21.8836 553.039 22.0374 554.362 22.3448 555.318L26.9985 546.112C26.5093 545.461 25.8315 545.135 24.9651 545.135C24.0008 545.135 23.2462 545.648 22.7012 546.673C22.1561 547.684 21.8836 549.243 21.8836 551.349ZM24.9651 557.563C25.9433 557.563 26.705 557.057 27.25 556.046C27.795 555.02 28.0675 553.455 28.0675 551.349C28.0675 549.562 27.8928 548.176 27.5435 547.192L22.8898 556.482C23.3929 557.202 24.0847 557.563 24.9651 557.563Z" fill="url(#paint23_linear_122_130)" fill-opacity="0.6"/>
<path d="M26.2228 581.148H29.3043V582.249H21.3176V581.148H24.8812V569.468L21.4853 571.484L20.8984 570.549L25.0909 567.972H26.2228V581.148Z" fill="url(#paint24_linear_122_130)" fill-opacity="0.6"/>
<path d="M26.2228 604.899H29.3043V606H21.3176V604.899H24.8812V593.219L21.4853 595.235L20.8984 594.3L25.0909 591.723H26.2228V604.899Z" fill="url(#paint25_linear_122_130)" fill-opacity="0.6"/>
<path d="M-33.4302 330.253C-31.9349 330.253 -30.8029 330.884 -30.0343 332.144C-29.2517 333.391 -28.8604 335.206 -28.8604 337.589C-28.8604 339.972 -29.2517 341.794 -30.0343 343.055C-30.8029 344.316 -31.9349 344.946 -33.4302 344.946C-34.9115 344.946 -36.0435 344.316 -36.8261 343.055C-37.6087 341.794 -38 339.972 -38 337.589C-38 335.22 -37.6087 333.405 -36.8261 332.144C-36.0435 330.884 -34.9115 330.253 -33.4302 330.253ZM-36.5117 337.589C-36.5117 339.28 -36.3579 340.603 -36.0505 341.559L-31.3968 332.352C-31.886 331.701 -32.5637 331.375 -33.4302 331.375C-34.3945 331.375 -35.1491 331.888 -35.6941 332.913C-36.2392 333.925 -36.5117 335.483 -36.5117 337.589ZM-33.4302 343.803C-32.4519 343.803 -31.6903 343.297 -31.1453 342.286C-30.6003 341.261 -30.3278 339.695 -30.3278 337.589C-30.3278 335.802 -30.5024 334.417 -30.8518 333.433L-35.5055 342.722C-35.0024 343.443 -34.3106 343.803 -33.4302 343.803Z" fill="url(#paint26_linear_122_130)" fill-opacity="0.6"/>
<path d="M-33.4302 354.004C-31.9349 354.004 -30.8029 354.635 -30.0343 355.895C-29.2517 357.142 -28.8604 358.957 -28.8604 361.34C-28.8604 363.723 -29.2517 365.545 -30.0343 366.806C-30.8029 368.067 -31.9349 368.697 -33.4302 368.697C-34.9115 368.697 -36.0435 368.067 -36.8261 366.806C-37.6087 365.545 -38 363.723 -38 361.34C-38 358.971 -37.6087 357.156 -36.8261 355.895C-36.0435 354.635 -34.9115 354.004 -33.4302 354.004ZM-36.5117 361.34C-36.5117 363.031 -36.3579 364.354 -36.0505 365.31L-31.3968 356.103C-31.886 355.452 -32.5637 355.126 -33.4302 355.126C-34.3945 355.126 -35.1491 355.639 -35.6941 356.664C-36.2392 357.676 -36.5117 359.234 -36.5117 361.34ZM-33.4302 367.554C-32.4519 367.554 -31.6903 367.049 -31.1453 366.037C-30.6003 365.012 -30.3278 363.446 -30.3278 361.34C-30.3278 359.553 -30.5024 358.168 -30.8518 357.184L-35.5055 366.474C-35.0024 367.194 -34.3106 367.554 -33.4302 367.554Z" fill="url(#paint27_linear_122_130)" fill-opacity="0.6"/>
<path d="M-32.1724 391.139H-29.091V392.24H-37.0777V391.139H-33.514V379.459L-36.91 381.475L-37.4969 380.54L-33.3044 377.963H-32.1724V391.139Z" fill="url(#paint28_linear_122_130)" fill-opacity="0.6"/>
<path d="M-33.4302 401.506C-31.9349 401.506 -30.8029 402.137 -30.0343 403.398C-29.2517 404.644 -28.8604 406.459 -28.8604 408.842C-28.8604 411.225 -29.2517 413.047 -30.0343 414.308C-30.8029 415.569 -31.9349 416.199 -33.4302 416.199C-34.9115 416.199 -36.0435 415.569 -36.8261 414.308C-37.6087 413.047 -38 411.225 -38 408.842C-38 406.473 -37.6087 404.658 -36.8261 403.398C-36.0435 402.137 -34.9115 401.506 -33.4302 401.506ZM-36.5117 408.842C-36.5117 410.533 -36.3579 411.856 -36.0505 412.812L-31.3968 403.605C-31.886 402.954 -32.5637 402.629 -33.4302 402.629C-34.3945 402.629 -35.1491 403.141 -35.6941 404.166C-36.2392 405.178 -36.5117 406.737 -36.5117 408.842ZM-33.4302 415.056C-32.4519 415.056 -31.6903 414.551 -31.1453 413.539C-30.6003 412.514 -30.3278 410.948 -30.3278 408.842C-30.3278 407.055 -30.5024 405.67 -30.8518 404.686L-35.5055 413.976C-35.0024 414.696 -34.3106 415.056 -33.4302 415.056Z" fill="url(#paint29_linear_122_130)" fill-opacity="0.6"/>
<path d="M-32.1724 438.641H-29.091V439.743H-37.0777V438.641H-33.514V426.962L-36.91 428.977L-37.4969 428.042L-33.3044 425.465H-32.1724V438.641Z" fill="url(#paint30_linear_122_130)" fill-opacity="0.6"/>
<path d="M-32.1724 462.392H-29.091V463.494H-37.0777V462.392H-33.514V450.713L-36.91 452.728L-37.4969 451.793L-33.3044 449.216H-32.1724V462.392Z" fill="url(#paint31_linear_122_130)" fill-opacity="0.6"/>
<path d="M6.75774 296.135H9.83922V297.236H1.85254V296.135H5.41615V284.455L2.02024 286.471L1.43329 285.536L5.62577 282.959H6.75774V296.135Z" fill="url(#paint32_linear_122_130)" fill-opacity="0.6"/>
<path d="M5.5 306.502C6.99532 306.502 8.12729 307.133 8.89591 308.393C9.67851 309.64 10.0698 311.455 10.0698 313.838C10.0698 316.221 9.67851 318.043 8.89591 319.304C8.12729 320.565 6.99532 321.195 5.5 321.195C4.01866 321.195 2.88669 320.565 2.10409 319.304C1.32149 318.043 0.930193 316.221 0.930193 313.838C0.930193 311.469 1.32149 309.654 2.10409 308.393C2.88669 307.133 4.01866 306.502 5.5 306.502ZM2.41852 313.838C2.41852 315.529 2.57225 316.852 2.8797 317.808L7.53335 308.601C7.04423 307.95 6.36645 307.624 5.5 307.624C4.53573 307.624 3.78108 308.137 3.23606 309.162C2.69104 310.174 2.41852 311.732 2.41852 313.838ZM5.5 320.052C6.47825 320.052 7.23988 319.546 7.7849 318.535C8.32993 317.51 8.60244 315.944 8.60244 313.838C8.60244 312.051 8.42775 310.665 8.07838 309.682L3.42472 318.971C3.92782 319.692 4.61958 320.052 5.5 320.052Z" fill="url(#paint33_linear_122_130)" fill-opacity="0.6"/>
<path d="M6.75774 343.637H9.83922V344.738H1.85254V343.637H5.41615V331.957L2.02024 333.973L1.43329 333.038L5.62577 330.461H6.75774V343.637Z" fill="url(#paint34_linear_122_130)" fill-opacity="0.6"/>
<path d="M6.75774 367.388H9.83922V368.489H1.85254V367.388H5.41615V355.708L2.02024 357.724L1.43329 356.789L5.62577 354.212H6.75774V367.388Z" fill="url(#paint35_linear_122_130)" fill-opacity="0.6"/>
<path d="M5.5 377.755C6.99532 377.755 8.12729 378.386 8.89591 379.646C9.67851 380.893 10.0698 382.708 10.0698 385.091C10.0698 387.474 9.67851 389.296 8.89591 390.557C8.12729 391.818 6.99532 392.448 5.5 392.448C4.01866 392.448 2.88669 391.818 2.10409 390.557C1.32149 389.296 0.930193 387.474 0.930193 385.091C0.930193 382.722 1.32149 380.907 2.10409 379.646C2.88669 378.386 4.01866 377.755 5.5 377.755ZM2.41852 385.091C2.41852 386.782 2.57225 388.105 2.8797 389.061L7.53335 379.854C7.04423 379.203 6.36645 378.878 5.5 378.878C4.53573 378.878 3.78108 379.39 3.23606 380.415C2.69104 381.427 2.41852 382.985 2.41852 385.091ZM5.5 391.305C6.47825 391.305 7.23988 390.8 7.7849 389.788C8.32993 388.763 8.60244 387.197 8.60244 385.091C8.60244 383.304 8.42775 381.919 8.07838 380.935L3.42472 390.225C3.92782 390.945 4.61958 391.305 5.5 391.305Z" fill="url(#paint36_linear_122_130)" fill-opacity="0.6"/>
<path d="M6.75774 414.89H9.83922V415.992H1.85254V414.89H5.41615V403.21L2.02024 405.226L1.43329 404.291L5.62577 401.714H6.75774V414.89Z" fill="url(#paint37_linear_122_130)" fill-opacity="0.6"/>
<path d="M6.75774 438.641H9.83922V439.743H1.85254V438.641H5.41615V426.962L2.02024 428.977L1.43329 428.042L5.62577 425.465H6.75774V438.641Z" fill="url(#paint38_linear_122_130)" fill-opacity="0.6"/>
<path d="M5.5 449.008C6.99532 449.008 8.12729 449.639 8.89591 450.9C9.67851 452.147 10.0698 453.962 10.0698 456.345C10.0698 458.728 9.67851 460.549 8.89591 461.81C8.12729 463.071 6.99532 463.701 5.5 463.701C4.01866 463.701 2.88669 463.071 2.10409 461.81C1.32149 460.549 0.930193 458.728 0.930193 456.345C0.930193 453.975 1.32149 452.16 2.10409 450.9C2.88669 449.639 4.01866 449.008 5.5 449.008ZM2.41852 456.345C2.41852 458.035 2.57225 459.358 2.8797 460.314L7.53335 451.107C7.04423 450.456 6.36645 450.131 5.5 450.131C4.53573 450.131 3.78108 450.643 3.23606 451.669C2.69104 452.68 2.41852 454.239 2.41852 456.345ZM5.5 462.558C6.47825 462.558 7.23988 462.053 7.7849 461.041C8.32993 460.016 8.60244 458.451 8.60244 456.345C8.60244 454.557 8.42775 453.172 8.07838 452.188L3.42472 461.478C3.92782 462.198 4.61958 462.558 5.5 462.558Z" fill="url(#paint39_linear_122_130)" fill-opacity="0.6"/>
<path d="M6.75774 486.143H9.83922V487.245H1.85254V486.143H5.41615V474.464L2.02024 476.48L1.43329 475.544L5.62577 472.967H6.75774V486.143Z" fill="url(#paint40_linear_122_130)" fill-opacity="0.6"/>
<path d="M5.5 496.511C6.99532 496.511 8.12729 497.141 8.89591 498.402C9.67851 499.649 10.0698 501.464 10.0698 503.847C10.0698 506.23 9.67851 508.052 8.89591 509.312C8.12729 510.573 6.99532 511.204 5.5 511.204C4.01866 511.204 2.88669 510.573 2.10409 509.312C1.32149 508.052 0.930193 506.23 0.930193 503.847C0.930193 501.478 1.32149 499.663 2.10409 498.402C2.88669 497.141 4.01866 496.511 5.5 496.511ZM2.41852 503.847C2.41852 505.537 2.57225 506.86 2.8797 507.816L7.53335 498.61C7.04423 497.958 6.36645 497.633 5.5 497.633C4.53573 497.633 3.78108 498.145 3.23606 499.171C2.69104 500.182 2.41852 501.741 2.41852 503.847ZM5.5 510.061C6.47825 510.061 7.23988 509.555 7.7849 508.543C8.32993 507.518 8.60244 505.953 8.60244 503.847C8.60244 502.059 8.42775 500.674 8.07838 499.69L3.42472 508.98C3.92782 509.7 4.61958 510.061 5.5 510.061Z" fill="url(#paint41_linear_122_130)" fill-opacity="0.6"/>
<path d="M44.4302 282.751C45.9255 282.751 47.0575 283.381 47.8261 284.642C48.6087 285.889 49 287.704 49 290.087C49 292.47 48.6087 294.292 47.8261 295.553C47.0575 296.814 45.9255 297.444 44.4302 297.444C42.9489 297.444 41.8169 296.814 41.0343 295.553C40.2517 294.292 39.8604 292.47 39.8604 290.087C39.8604 287.718 40.2517 285.903 41.0343 284.642C41.8169 283.381 42.9489 282.751 44.4302 282.751ZM41.3487 290.087C41.3487 291.777 41.5024 293.101 41.8099 294.057L46.4636 284.85C45.9744 284.199 45.2966 283.873 44.4302 283.873C43.4659 283.873 42.7113 284.386 42.1663 285.411C41.6212 286.423 41.3487 287.981 41.3487 290.087ZM44.4302 296.301C45.4084 296.301 46.1701 295.795 46.7151 294.784C47.2601 293.759 47.5326 292.193 47.5326 290.087C47.5326 288.3 47.3579 286.914 47.0086 285.931L42.3549 295.22C42.858 295.941 43.5498 296.301 44.4302 296.301Z" fill="url(#paint42_linear_122_130)" fill-opacity="0.6"/>
<path d="M45.6879 319.886H48.7694V320.987H40.7827V319.886H44.3463V308.206L40.9504 310.222L40.3635 309.287L44.556 306.71H45.6879V319.886Z" fill="url(#paint43_linear_122_130)" fill-opacity="0.6"/>
<path d="M45.6879 343.637H48.7694V344.738H40.7827V343.637H44.3463V331.957L40.9504 333.973L40.3635 333.038L44.556 330.461H45.6879V343.637Z" fill="url(#paint44_linear_122_130)" fill-opacity="0.6"/>
<path d="M44.4302 354.004C45.9255 354.004 47.0575 354.635 47.8261 355.895C48.6087 357.142 49 358.957 49 361.34C49 363.723 48.6087 365.545 47.8261 366.806C47.0575 368.067 45.9255 368.697 44.4302 368.697C42.9489 368.697 41.8169 368.067 41.0343 366.806C40.2517 365.545 39.8604 363.723 39.8604 361.34C39.8604 358.971 40.2517 357.156 41.0343 355.895C41.8169 354.635 42.9489 354.004 44.4302 354.004ZM41.3487 361.34C41.3487 363.031 41.5024 364.354 41.8099 365.31L46.4636 356.103C45.9744 355.452 45.2966 355.126 44.4302 355.126C43.4659 355.126 42.7113 355.639 42.1663 356.664C41.6212 357.676 41.3487 359.234 41.3487 361.34ZM44.4302 367.554C45.4084 367.554 46.1701 367.049 46.7151 366.037C47.2601 365.012 47.5326 363.446 47.5326 361.34C47.5326 359.553 47.3579 358.168 47.0086 357.184L42.3549 366.474C42.858 367.194 43.5498 367.554 44.4302 367.554Z" fill="url(#paint45_linear_122_130)" fill-opacity="0.6"/>
<path d="M44.4302 377.755C45.9255 377.755 47.0575 378.386 47.8261 379.646C48.6087 380.893 49 382.708 49 385.091C49 387.474 48.6087 389.296 47.8261 390.557C47.0575 391.818 45.9255 392.448 44.4302 392.448C42.9489 392.448 41.8169 391.818 41.0343 390.557C40.2517 389.296 39.8604 387.474 39.8604 385.091C39.8604 382.722 40.2517 380.907 41.0343 379.646C41.8169 378.386 42.9489 377.755 44.4302 377.755ZM41.3487 385.091C41.3487 386.782 41.5024 388.105 41.8099 389.061L46.4636 379.854C45.9744 379.203 45.2966 378.878 44.4302 378.878C43.4659 378.878 42.7113 379.39 42.1663 380.415C41.6212 381.427 41.3487 382.985 41.3487 385.091ZM44.4302 391.305C45.4084 391.305 46.1701 390.8 46.7151 389.788C47.2601 388.763 47.5326 387.197 47.5326 385.091C47.5326 383.304 47.3579 381.919 47.0086 380.935L42.3549 390.225C42.858 390.945 43.5498 391.305 44.4302 391.305Z" fill="url(#paint46_linear_122_130)" fill-opacity="0.6"/>
<g opacity="0.6">
<path d="M872.93 -41C874.356 -41 875.436 -40.395 876.17 -39.1851C876.916 -37.9885 877.29 -36.2468 877.29 -33.9599C877.29 -31.673 876.916 -29.9246 876.17 -28.7147C875.436 -27.5048 874.356 -26.8998 872.93 -26.8998C871.517 -26.8998 870.437 -27.5048 869.69 -28.7147C868.943 -29.9246 868.57 -31.673 868.57 -33.9599C868.57 -36.2335 868.943 -37.9752 869.69 -39.1851C870.437 -40.395 871.517 -41 872.93 -41ZM869.99 -33.9599C869.99 -32.3378 870.137 -31.068 870.43 -30.1506L874.87 -38.9857C874.403 -39.6106 873.756 -39.923 872.93 -39.923C872.01 -39.923 871.29 -39.4311 870.77 -38.4472C870.25 -37.4766 869.99 -35.9808 869.99 -33.9599ZM872.93 -27.9967C873.863 -27.9967 874.59 -28.482 875.11 -29.4526C875.63 -30.4365 875.89 -31.9389 875.89 -33.9599C875.89 -35.675 875.723 -37.0046 875.39 -37.9486L870.95 -29.0338C871.43 -28.3424 872.09 -27.9967 872.93 -27.9967Z" fill="url(#paint47_linear_122_130)"/>
<path d="M874.13 -5.36345H877.07V-4.30644H869.45V-5.36345H872.85V-16.5718L869.61 -14.6373L869.05 -15.5347L873.05 -18.0078H874.13V-5.36345Z" fill="url(#paint48_linear_122_130)"/>
<path d="M872.93 4.58561C874.356 4.58561 875.436 5.19057 876.17 6.40048C876.916 7.59711 877.29 9.33886 877.29 11.6257C877.29 13.9126 876.916 15.661 876.17 16.8709C875.436 18.0808 874.356 18.6858 872.93 18.6858C871.517 18.6858 870.437 18.0808 869.69 16.8709C868.943 15.661 868.57 13.9126 868.57 11.6257C868.57 9.35215 868.943 7.6104 869.69 6.40048C870.437 5.19057 871.517 4.58561 872.93 4.58561ZM869.99 11.6257C869.99 13.2478 870.137 14.5176 870.43 15.435L874.87 6.59992C874.403 5.97502 873.756 5.66256 872.93 5.66256C872.01 5.66256 871.29 6.15451 870.77 7.1384C870.25 8.10899 869.99 9.60477 869.99 11.6257ZM872.93 17.5889C873.863 17.5889 874.59 17.1036 875.11 16.133C875.63 15.1491 875.89 13.6467 875.89 11.6257C875.89 9.91057 875.723 8.58099 875.39 7.63699L870.95 16.5518C871.43 17.2432 872.09 17.5889 872.93 17.5889Z" fill="url(#paint49_linear_122_130)"/>
<path d="M874.13 40.2221H877.07V41.2792H869.45V40.2221H872.85V29.0138L869.61 30.9483L869.05 30.0509L873.05 27.5778H874.13V40.2221Z" fill="url(#paint50_linear_122_130)"/>
<path d="M874.13 63.015H877.07V64.072H869.45V63.015H872.85V51.8066L869.61 53.7411L869.05 52.8437L873.05 50.3706H874.13V63.015Z" fill="url(#paint51_linear_122_130)"/>
<path d="M872.93 72.964C874.356 72.964 875.436 73.569 876.17 74.7789C876.916 75.9755 877.29 77.7173 877.29 80.0041C877.29 82.291 876.916 84.0394 876.17 85.2493C875.436 86.4593 874.356 87.0642 872.93 87.0642C871.517 87.0642 870.437 86.4593 869.69 85.2493C868.943 84.0394 868.57 82.291 868.57 80.0041C868.57 77.7306 868.943 75.9888 869.69 74.7789C870.437 73.569 871.517 72.964 872.93 72.964ZM869.99 80.0041C869.99 81.6262 870.137 82.896 870.43 83.8134L874.87 74.9783C874.403 74.3534 873.756 74.041 872.93 74.041C872.01 74.041 871.29 74.5329 870.77 75.5168C870.25 76.4874 869.99 77.9832 869.99 80.0041ZM872.93 85.9673C873.863 85.9673 874.59 85.482 875.11 84.5114C875.63 83.5275 875.89 82.0251 875.89 80.0041C875.89 78.289 875.723 76.9594 875.39 76.0154L870.95 84.9302C871.43 85.6216 872.09 85.9673 872.93 85.9673Z" fill="url(#paint52_linear_122_130)"/>
<path d="M874.13 108.601H877.07V109.658H869.45V108.601H872.85V97.3922L869.61 99.3267L869.05 98.4293L873.05 95.9562H874.13V108.601Z" fill="url(#paint53_linear_122_130)"/>
<path d="M872.93 118.55C874.356 118.55 875.436 119.155 876.17 120.365C876.916 121.561 877.29 123.303 877.29 125.59C877.29 127.877 876.916 129.625 876.17 130.835C875.436 132.045 874.356 132.65 872.93 132.65C871.517 132.65 870.437 132.045 869.69 130.835C868.943 129.625 868.57 127.877 868.57 125.59C868.57 123.316 868.943 121.574 869.69 120.365C870.437 119.155 871.517 118.55 872.93 118.55ZM869.99 125.59C869.99 127.212 870.137 128.482 870.43 129.399L874.87 120.564C874.403 119.939 873.756 119.627 872.93 119.627C872.01 119.627 871.29 120.119 870.77 121.102C870.25 122.073 869.99 123.569 869.99 125.59ZM872.93 131.553C873.863 131.553 874.59 131.068 875.11 130.097C875.63 129.113 875.89 127.611 875.89 125.59C875.89 123.875 875.723 122.545 875.39 121.601L870.95 130.516C871.43 131.207 872.09 131.553 872.93 131.553Z" fill="url(#paint54_linear_122_130)"/>
<path d="M872.93 141.342C874.356 141.342 875.436 141.947 876.17 143.157C876.916 144.354 877.29 146.096 877.29 148.383C877.29 150.669 876.916 152.418 876.17 153.628C875.436 154.838 874.356 155.443 872.93 155.443C871.517 155.443 870.437 154.838 869.69 153.628C868.943 152.418 868.57 150.669 868.57 148.383C868.57 146.109 868.943 144.367 869.69 143.157C870.437 141.947 871.517 141.342 872.93 141.342ZM869.99 148.383C869.99 150.005 870.137 151.274 870.43 152.192L874.87 143.357C874.403 142.732 873.756 142.419 872.93 142.419C872.01 142.419 871.29 142.911 870.77 143.895C870.25 144.866 869.99 146.362 869.99 148.383ZM872.93 154.346C873.863 154.346 874.59 153.86 875.11 152.89C875.63 151.906 875.89 150.404 875.89 148.383C875.89 146.667 875.723 145.338 875.39 144.394L870.95 153.309C871.43 154 872.09 154.346 872.93 154.346Z" fill="url(#paint55_linear_122_130)"/>
<path d="M874.13 176.979H877.07V178.036H869.45V176.979H872.85V165.771L869.61 167.705L869.05 166.808L873.05 164.335H874.13V176.979Z" fill="url(#paint56_linear_122_130)"/>
<path d="M872.93 186.928C874.356 186.928 875.436 187.533 876.17 188.743C876.916 189.94 877.29 191.681 877.29 193.968C877.29 196.255 876.916 198.003 876.17 199.213C875.436 200.423 874.356 201.028 872.93 201.028C871.517 201.028 870.437 200.423 869.69 199.213C868.943 198.003 868.57 196.255 868.57 193.968C868.57 191.695 868.943 189.953 869.69 188.743C870.437 187.533 871.517 186.928 872.93 186.928ZM869.99 193.968C869.99 195.59 870.137 196.86 870.43 197.777L874.87 188.942C874.403 188.317 873.756 188.005 872.93 188.005C872.01 188.005 871.29 188.497 870.77 189.481C870.25 190.451 869.99 191.947 869.99 193.968ZM872.93 199.931C873.863 199.931 874.59 199.446 875.11 198.475C875.63 197.492 875.89 195.989 875.89 193.968C875.89 192.253 875.723 190.923 875.39 189.979L870.95 198.894C871.43 199.586 872.09 199.931 872.93 199.931Z" fill="url(#paint57_linear_122_130)"/>
<path d="M874.13 222.565H877.07V223.622H869.45V222.565H872.85V211.356L869.61 213.291L869.05 212.393L873.05 209.92H874.13V222.565Z" fill="url(#paint58_linear_122_130)"/>
<path d="M874.13 245.357H877.07V246.414H869.45V245.357H872.85V234.149L869.61 236.084L869.05 235.186L873.05 232.713H874.13V245.357Z" fill="url(#paint59_linear_122_130)"/>
<path d="M910.07 4.58561C911.497 4.58561 912.577 5.19057 913.31 6.40048C914.057 7.59711 914.43 9.33886 914.43 11.6257C914.43 13.9126 914.057 15.661 913.31 16.8709C912.577 18.0808 911.497 18.6858 910.07 18.6858C908.657 18.6858 907.577 18.0808 906.83 16.8709C906.084 15.661 905.71 13.9126 905.71 11.6257C905.71 9.35215 906.084 7.6104 906.83 6.40048C907.577 5.19057 908.657 4.58561 910.07 4.58561ZM907.13 11.6257C907.13 13.2478 907.277 14.5176 907.57 15.435L912.01 6.59992C911.543 5.97502 910.897 5.66256 910.07 5.66256C909.15 5.66256 908.43 6.15451 907.91 7.1384C907.39 8.10899 907.13 9.60477 907.13 11.6257ZM910.07 17.5889C911.003 17.5889 911.73 17.1036 912.25 16.133C912.77 15.1491 913.03 13.6467 913.03 11.6257C913.03 9.91057 912.863 8.58099 912.53 7.63699L908.09 16.5518C908.57 17.2432 909.23 17.5889 910.07 17.5889Z" fill="url(#paint60_linear_122_130)"/>
<path d="M911.27 40.2221H914.21V41.2792H906.59V40.2221H909.99V29.0138L906.75 30.9483L906.19 30.0509L910.19 27.5778H911.27V40.2221Z" fill="url(#paint61_linear_122_130)"/>
<path d="M910.07 50.1712C911.497 50.1712 912.577 50.7762 913.31 51.9861C914.057 53.1827 914.43 54.9245 914.43 57.2113C914.43 59.4982 914.057 61.2466 913.31 62.4565C912.577 63.6664 911.497 64.2714 910.07 64.2714C908.657 64.2714 907.577 63.6664 906.83 62.4565C906.084 61.2466 905.71 59.4982 905.71 57.2113C905.71 54.9378 906.084 53.196 906.83 51.9861C907.577 50.7762 908.657 50.1712 910.07 50.1712ZM907.13 57.2113C907.13 58.8334 907.277 60.1032 907.57 61.0206L912.01 52.1855C911.543 51.5606 910.897 51.2482 910.07 51.2482C909.15 51.2482 908.43 51.7401 907.91 52.724C907.39 53.6946 907.13 55.1904 907.13 57.2113ZM910.07 63.1745C911.003 63.1745 911.73 62.6892 912.25 61.7186C912.77 60.7347 913.03 59.2323 913.03 57.2113C913.03 55.4962 912.863 54.1666 912.53 53.2226L908.09 62.1374C908.57 62.8288 909.23 63.1745 910.07 63.1745Z" fill="url(#paint62_linear_122_130)"/>
<path d="M910.07 72.964C911.497 72.964 912.577 73.569 913.31 74.7789C914.057 75.9755 914.43 77.7173 914.43 80.0041C914.43 82.291 914.057 84.0394 913.31 85.2493C912.577 86.4593 911.497 87.0642 910.07 87.0642C908.657 87.0642 907.577 86.4593 906.83 85.2493C906.084 84.0394 905.71 82.291 905.71 80.0041C905.71 77.7306 906.084 75.9888 906.83 74.7789C907.577 73.569 908.657 72.964 910.07 72.964ZM907.13 80.0041C907.13 81.6262 907.277 82.896 907.57 83.8134L912.01 74.9783C911.543 74.3534 910.897 74.041 910.07 74.041C909.15 74.041 908.43 74.5329 907.91 75.5168C907.39 76.4874 907.13 77.9832 907.13 80.0041ZM910.07 85.9673C911.003 85.9673 911.73 85.482 912.25 84.5114C912.77 83.5275 913.03 82.0251 913.03 80.0041C913.03 78.289 912.863 76.9594 912.53 76.0154L908.09 84.9302C908.57 85.6216 909.23 85.9673 910.07 85.9673Z" fill="url(#paint63_linear_122_130)"/>
<path d="M911.27 108.601H914.21V109.658H906.59V108.601H909.99V97.3922L906.75 99.3267L906.19 98.4293L910.19 95.9562H911.27V108.601Z" fill="url(#paint64_linear_122_130)"/>
<path d="M910.07 118.55C911.497 118.55 912.577 119.155 913.31 120.365C914.057 121.561 914.43 123.303 914.43 125.59C914.43 127.877 914.057 129.625 913.31 130.835C912.577 132.045 911.497 132.65 910.07 132.65C908.657 132.65 907.577 132.045 906.83 130.835C906.084 129.625 905.71 127.877 905.71 125.59C905.71 123.316 906.084 121.574 906.83 120.365C907.577 119.155 908.657 118.55 910.07 118.55ZM907.13 125.59C907.13 127.212 907.277 128.482 907.57 129.399L912.01 120.564C911.543 119.939 910.897 119.627 910.07 119.627C909.15 119.627 908.43 120.119 907.91 121.102C907.39 122.073 907.13 123.569 907.13 125.59ZM910.07 131.553C911.003 131.553 911.73 131.068 912.25 130.097C912.77 129.113 913.03 127.611 913.03 125.59C913.03 123.875 912.863 122.545 912.53 121.601L908.09 130.516C908.57 131.207 909.23 131.553 910.07 131.553Z" fill="url(#paint65_linear_122_130)"/>
<path d="M911.27 154.186H914.21V155.243H906.59V154.186H909.99V142.978L906.75 144.912L906.19 144.015L910.19 141.542H911.27V154.186Z" fill="url(#paint66_linear_122_130)"/>
<path d="M910.07 164.135C911.497 164.135 912.577 164.74 913.31 165.95C914.057 167.147 914.43 168.888 914.43 171.175C914.43 173.462 914.057 175.211 913.31 176.421C912.577 177.63 911.497 178.235 910.07 178.235C908.657 178.235 907.577 177.63 906.83 176.421C906.084 175.211 905.71 173.462 905.71 171.175C905.71 168.902 906.084 167.16 906.83 165.95C907.577 164.74 908.657 164.135 910.07 164.135ZM907.13 171.175C907.13 172.797 907.277 174.067 907.57 174.985L912.01 166.15C911.543 165.525 910.897 165.212 910.07 165.212C909.15 165.212 908.43 165.704 907.91 166.688C907.39 167.659 907.13 169.154 907.13 171.175ZM910.07 177.139C911.003 177.139 911.73 176.653 912.25 175.683C912.77 174.699 913.03 173.196 913.03 171.175C913.03 169.46 912.863 168.131 912.53 167.187L908.09 176.101C908.57 176.793 909.23 177.139 910.07 177.139Z" fill="url(#paint67_linear_122_130)"/>
<path d="M910.07 186.928C911.497 186.928 912.577 187.533 913.31 188.743C914.057 189.94 914.43 191.681 914.43 193.968C914.43 196.255 914.057 198.003 913.31 199.213C912.577 200.423 911.497 201.028 910.07 201.028C908.657 201.028 907.577 200.423 906.83 199.213C906.084 198.003 905.71 196.255 905.71 193.968C905.71 191.695 906.084 189.953 906.83 188.743C907.577 187.533 908.657 186.928 910.07 186.928ZM907.13 193.968C907.13 195.59 907.277 196.86 907.57 197.777L912.01 188.942C911.543 188.317 910.897 188.005 910.07 188.005C909.15 188.005 908.43 188.497 907.91 189.481C907.39 190.451 907.13 191.947 907.13 193.968ZM910.07 199.931C911.003 199.931 911.73 199.446 912.25 198.475C912.77 197.492 913.03 195.989 913.03 193.968C913.03 192.253 912.863 190.923 912.53 189.979L908.09 198.894C908.57 199.586 909.23 199.931 910.07 199.931Z" fill="url(#paint68_linear_122_130)"/>
<path d="M911.27 222.565H914.21V223.622H906.59V222.565H909.99V211.356L906.75 213.291L906.19 212.393L910.19 209.92H911.27V222.565Z" fill="url(#paint69_linear_122_130)"/>
<path d="M910.07 232.514C911.497 232.514 912.577 233.119 913.31 234.329C914.057 235.525 914.43 237.267 914.43 239.554C914.43 241.841 914.057 243.589 913.31 244.799C912.577 246.009 911.497 246.614 910.07 246.614C908.657 246.614 907.577 246.009 906.83 244.799C906.084 243.589 905.71 241.841 905.71 239.554C905.71 237.28 906.084 235.538 906.83 234.329C907.577 233.119 908.657 232.514 910.07 232.514ZM907.13 239.554C907.13 241.176 907.277 242.446 907.57 243.363L912.01 234.528C911.543 233.903 910.897 233.591 910.07 233.591C909.15 233.591 908.43 234.083 907.91 235.066C907.39 236.037 907.13 237.533 907.13 239.554ZM910.07 245.517C911.003 245.517 911.73 245.032 912.25 244.061C912.77 243.077 913.03 241.575 913.03 239.554C913.03 237.839 912.863 236.509 912.53 235.565L908.09 244.48C908.57 245.171 909.23 245.517 910.07 245.517Z" fill="url(#paint70_linear_122_130)"/>
<path d="M911.27 268.15H914.21V269.207H906.59V268.15H909.99V256.942L906.75 258.876L906.19 257.979L910.19 255.506H911.27V268.15Z" fill="url(#paint71_linear_122_130)"/>
<path d="M911.27 290.943H914.21V292H906.59V290.943H909.99V279.735L906.75 281.669L906.19 280.772L910.19 278.299H911.27V290.943Z" fill="url(#paint72_linear_122_130)"/>
<path d="M854.36 27.3784C855.786 27.3784 856.866 27.9834 857.599 29.1933C858.346 30.3899 858.719 32.1317 858.719 34.4185C858.719 36.7054 858.346 38.4538 857.599 39.6637C856.866 40.8736 855.786 41.4786 854.36 41.4786C852.946 41.4786 851.867 40.8736 851.12 39.6637C850.373 38.4538 850 36.7054 850 34.4185C850 32.145 850.373 30.4032 851.12 29.1933C851.867 27.9834 852.946 27.3784 854.36 27.3784ZM851.42 34.4185C851.42 36.0406 851.567 37.3104 851.86 38.2278L856.3 29.3927C855.833 28.7678 855.186 28.4554 854.36 28.4554C853.44 28.4554 852.72 28.9473 852.2 29.9312C851.68 30.9018 851.42 32.3976 851.42 34.4185ZM854.36 40.3817C855.293 40.3817 856.02 39.8964 856.54 38.9258C857.06 37.9419 857.319 36.4395 857.319 34.4185C857.319 32.7034 857.153 31.3738 856.82 30.4298L852.38 39.3446C852.86 40.036 853.52 40.3817 854.36 40.3817Z" fill="url(#paint73_linear_122_130)"/>
<path d="M854.36 50.1712C855.786 50.1712 856.866 50.7762 857.599 51.9861C858.346 53.1827 858.719 54.9245 858.719 57.2113C858.719 59.4982 858.346 61.2466 857.599 62.4565C856.866 63.6664 855.786 64.2714 854.36 64.2714C852.946 64.2714 851.867 63.6664 851.12 62.4565C850.373 61.2466 850 59.4982 850 57.2113C850 54.9378 850.373 53.196 851.12 51.9861C851.867 50.7762 852.946 50.1712 854.36 50.1712ZM851.42 57.2113C851.42 58.8334 851.567 60.1032 851.86 61.0206L856.3 52.1855C855.833 51.5606 855.186 51.2482 854.36 51.2482C853.44 51.2482 852.72 51.7401 852.2 52.724C851.68 53.6946 851.42 55.1904 851.42 57.2113ZM854.36 63.1745C855.293 63.1745 856.02 62.6892 856.54 61.7186C857.06 60.7347 857.319 59.2323 857.319 57.2113C857.319 55.4962 857.153 54.1666 856.82 53.2226L852.38 62.1374C852.86 62.8288 853.52 63.1745 854.36 63.1745Z" fill="url(#paint74_linear_122_130)"/>
<path d="M855.56 85.8078H858.499V86.8648H850.88V85.8078H854.28V74.5994L851.04 76.5339L850.48 75.6365L854.48 73.1635H855.56V85.8078Z" fill="url(#paint75_linear_122_130)"/>
<path d="M854.36 95.7568C855.786 95.7568 856.866 96.3618 857.599 97.5717C858.346 98.7683 858.719 100.51 858.719 102.797C858.719 105.084 858.346 106.832 857.599 108.042C856.866 109.252 855.786 109.857 854.36 109.857C852.946 109.857 851.867 109.252 851.12 108.042C850.373 106.832 850 105.084 850 102.797C850 100.523 850.373 98.7816 851.12 97.5717C851.867 96.3618 852.946 95.7568 854.36 95.7568ZM851.42 102.797C851.42 104.419 851.567 105.689 851.86 106.606L856.3 97.7711C855.833 97.1462 855.186 96.8338 854.36 96.8338C853.44 96.8338 852.72 97.3257 852.2 98.3096C851.68 99.2802 851.42 100.776 851.42 102.797ZM854.36 108.76C855.293 108.76 856.02 108.275 856.54 107.304C857.06 106.32 857.319 104.818 857.319 102.797C857.319 101.082 857.153 99.7522 856.82 98.8082L852.38 107.723C852.86 108.414 853.52 108.76 854.36 108.76Z" fill="url(#paint76_linear_122_130)"/>
<path d="M855.56 131.393H858.499V132.45H850.88V131.393H854.28V120.185L851.04 122.12L850.48 121.222L854.48 118.749H855.56V131.393Z" fill="url(#paint77_linear_122_130)"/>
<path d="M855.56 154.186H858.499V155.243H850.88V154.186H854.28V142.978L851.04 144.912L850.48 144.015L854.48 141.542H855.56V154.186Z" fill="url(#paint78_linear_122_130)"/>
<path d="M892.7 -5.36345H895.64V-4.30644H888.02V-5.36345H891.42V-16.5718L888.18 -14.6373L887.62 -15.5347L891.62 -18.0078H892.7V-5.36345Z" fill="url(#paint79_linear_122_130)"/>
<path d="M891.5 4.58561C892.927 4.58561 894.006 5.19057 894.74 6.40048C895.486 7.59711 895.86 9.33886 895.86 11.6257C895.86 13.9126 895.486 15.661 894.74 16.8709C894.006 18.0808 892.927 18.6858 891.5 18.6858C890.087 18.6858 889.007 18.0808 888.26 16.8709C887.514 15.661 887.14 13.9126 887.14 11.6257C887.14 9.35215 887.514 7.6104 888.26 6.40048C889.007 5.19057 890.087 4.58561 891.5 4.58561ZM888.56 11.6257C888.56 13.2478 888.707 14.5176 889 15.435L893.44 6.59992C892.973 5.97502 892.327 5.66256 891.5 5.66256C890.58 5.66256 889.86 6.15451 889.34 7.1384C888.82 8.10899 888.56 9.60477 888.56 11.6257ZM891.5 17.5889C892.433 17.5889 893.16 17.1036 893.68 16.133C894.2 15.1491 894.46 13.6467 894.46 11.6257C894.46 9.91057 894.293 8.58099 893.96 7.63699L889.52 16.5518C890 17.2432 890.66 17.5889 891.5 17.5889Z" fill="url(#paint80_linear_122_130)"/>
<path d="M892.7 40.2221H895.64V41.2792H888.02V40.2221H891.42V29.0138L888.18 30.9483L887.62 30.0509L891.62 27.5778H892.7V40.2221Z" fill="url(#paint81_linear_122_130)"/>
<path d="M892.7 63.015H895.64V64.072H888.02V63.015H891.42V51.8066L888.18 53.7411L887.62 52.8437L891.62 50.3706H892.7V63.015Z" fill="url(#paint82_linear_122_130)"/>
<path d="M891.5 72.964C892.927 72.964 894.006 73.569 894.74 74.7789C895.486 75.9755 895.86 77.7173 895.86 80.0041C895.86 82.291 895.486 84.0394 894.74 85.2493C894.006 86.4593 892.927 87.0642 891.5 87.0642C890.087 87.0642 889.007 86.4593 888.26 85.2493C887.514 84.0394 887.14 82.291 887.14 80.0041C887.14 77.7306 887.514 75.9888 888.26 74.7789C889.007 73.569 890.087 72.964 891.5 72.964ZM888.56 80.0041C888.56 81.6262 888.707 82.896 889 83.8134L893.44 74.9783C892.973 74.3534 892.327 74.041 891.5 74.041C890.58 74.041 889.86 74.5329 889.34 75.5168C888.82 76.4874 888.56 77.9832 888.56 80.0041ZM891.5 85.9673C892.433 85.9673 893.16 85.482 893.68 84.5114C894.2 83.5275 894.46 82.0251 894.46 80.0041C894.46 78.289 894.293 76.9594 893.96 76.0154L889.52 84.9302C890 85.6216 890.66 85.9673 891.5 85.9673Z" fill="url(#paint83_linear_122_130)"/>
<path d="M892.7 108.601H895.64V109.658H888.02V108.601H891.42V97.3922L888.18 99.3267L887.62 98.4293L891.62 95.9562H892.7V108.601Z" fill="url(#paint84_linear_122_130)"/>
<path d="M892.7 131.393H895.64V132.45H888.02V131.393H891.42V120.185L888.18 122.12L887.62 121.222L891.62 118.749H892.7V131.393Z" fill="url(#paint85_linear_122_130)"/>
<path d="M891.5 141.342C892.927 141.342 894.006 141.947 894.74 143.157C895.486 144.354 895.86 146.096 895.86 148.383C895.86 150.669 895.486 152.418 894.74 153.628C894.006 154.838 892.927 155.443 891.5 155.443C890.087 155.443 889.007 154.838 888.26 153.628C887.514 152.418 887.14 150.669 887.14 148.383C887.14 146.109 887.514 144.367 888.26 143.157C889.007 141.947 890.087 141.342 891.5 141.342ZM888.56 148.383C888.56 150.005 888.707 151.274 889 152.192L893.44 143.357C892.973 142.732 892.327 142.419 891.5 142.419C890.58 142.419 889.86 142.911 889.34 143.895C888.82 144.866 888.56 146.362 888.56 148.383ZM891.5 154.346C892.433 154.346 893.16 153.86 893.68 152.89C894.2 151.906 894.46 150.404 894.46 148.383C894.46 146.667 894.293 145.338 893.96 144.394L889.52 153.309C890 154 890.66 154.346 891.5 154.346Z" fill="url(#paint86_linear_122_130)"/>
<path d="M892.7 176.979H895.64V178.036H888.02V176.979H891.42V165.771L888.18 167.705L887.62 166.808L891.62 164.335H892.7V176.979Z" fill="url(#paint87_linear_122_130)"/>
<path d="M891.5 186.928C892.927 186.928 894.006 187.533 894.74 188.743C895.486 189.94 895.86 191.681 895.86 193.968C895.86 196.255 895.486 198.003 894.74 199.213C894.006 200.423 892.927 201.028 891.5 201.028C890.087 201.028 889.007 200.423 888.26 199.213C887.514 198.003 887.14 196.255 887.14 193.968C887.14 191.695 887.514 189.953 888.26 188.743C889.007 187.533 890.087 186.928 891.5 186.928ZM888.56 193.968C888.56 195.59 888.707 196.86 889 197.777L893.44 188.942C892.973 188.317 892.327 188.005 891.5 188.005C890.58 188.005 889.86 188.497 889.34 189.481C888.82 190.451 888.56 191.947 888.56 193.968ZM891.5 199.931C892.433 199.931 893.16 199.446 893.68 198.475C894.2 197.492 894.46 195.989 894.46 193.968C894.46 192.253 894.293 190.923 893.96 189.979L889.52 198.894C890 199.586 890.66 199.931 891.5 199.931Z" fill="url(#paint88_linear_122_130)"/>
<path d="M928.64 -18.2072C930.067 -18.2072 931.147 -17.6022 931.88 -16.3923C932.627 -15.1957 933 -13.4539 933 -11.1671C933 -8.88019 932.627 -7.13179 931.88 -5.92188C931.147 -4.71196 930.067 -4.107 928.64 -4.107C927.227 -4.107 926.147 -4.71196 925.401 -5.92188C924.654 -7.13179 924.281 -8.88019 924.281 -11.1671C924.281 -13.4407 924.654 -15.1824 925.401 -16.3923C926.147 -17.6022 927.227 -18.2072 928.64 -18.2072ZM925.7 -11.1671C925.7 -9.54498 925.847 -8.27523 926.14 -7.35782L930.58 -16.1929C930.114 -16.8178 929.467 -17.1302 928.64 -17.1302C927.72 -17.1302 927 -16.6383 926.48 -15.6544C925.96 -14.6838 925.7 -13.188 925.7 -11.1671ZM928.64 -5.2039C929.574 -5.2039 930.3 -5.6892 930.82 -6.65979C931.34 -7.64368 931.6 -9.14611 931.6 -11.1671C931.6 -12.8822 931.433 -14.2118 931.1 -15.1558L926.66 -6.24098C927.14 -5.5496 927.8 -5.2039 928.64 -5.2039Z" fill="url(#paint89_linear_122_130)"/>
<path d="M929.84 17.4293H932.78V18.4864H925.161V17.4293H928.56V6.22099L925.321 8.15553L924.761 7.25806L928.76 4.78504H929.84V17.4293Z" fill="url(#paint90_linear_122_130)"/>
<path d="M929.84 40.2221H932.78V41.2792H925.161V40.2221H928.56V29.0138L925.321 30.9483L924.761 30.0509L928.76 27.5778H929.84V40.2221Z" fill="url(#paint91_linear_122_130)"/>
<path d="M928.64 50.1712C930.067 50.1712 931.147 50.7762 931.88 51.9861C932.627 53.1827 933 54.9245 933 57.2113C933 59.4982 932.627 61.2466 931.88 62.4565C931.147 63.6664 930.067 64.2714 928.64 64.2714C927.227 64.2714 926.147 63.6664 925.401 62.4565C924.654 61.2466 924.281 59.4982 924.281 57.2113C924.281 54.9378 924.654 53.196 925.401 51.9861C926.147 50.7762 927.227 50.1712 928.64 50.1712ZM925.7 57.2113C925.7 58.8334 925.847 60.1032 926.14 61.0206L930.58 52.1855C930.114 51.5606 929.467 51.2482 928.64 51.2482C927.72 51.2482 927 51.7401 926.48 52.724C925.96 53.6946 925.7 55.1904 925.7 57.2113ZM928.64 63.1745C929.574 63.1745 930.3 62.6892 930.82 61.7186C931.34 60.7347 931.6 59.2323 931.6 57.2113C931.6 55.4962 931.433 54.1666 931.1 53.2226L926.66 62.1374C927.14 62.8288 927.8 63.1745 928.64 63.1745Z" fill="url(#paint92_linear_122_130)"/>
<path d="M928.64 72.964C930.067 72.964 931.147 73.569 931.88 74.7789C932.627 75.9755 933 77.7173 933 80.0041C933 82.291 932.627 84.0394 931.88 85.2493C931.147 86.4593 930.067 87.0642 928.64 87.0642C927.227 87.0642 926.147 86.4593 925.401 85.2493C924.654 84.0394 924.281 82.291 924.281 80.0041C924.281 77.7306 924.654 75.9888 925.401 74.7789C926.147 73.569 927.227 72.964 928.64 72.964ZM925.7 80.0041C925.7 81.6262 925.847 82.896 926.14 83.8134L930.58 74.9783C930.114 74.3534 929.467 74.041 928.64 74.041C927.72 74.041 927 74.5329 926.48 75.5168C925.96 76.4874 925.7 77.9832 925.7 80.0041ZM928.64 85.9673C929.574 85.9673 930.3 85.482 930.82 84.5114C931.34 83.5275 931.6 82.0251 931.6 80.0041C931.6 78.289 931.433 76.9594 931.1 76.0154L926.66 84.9302C927.14 85.6216 927.8 85.9673 928.64 85.9673Z" fill="url(#paint93_linear_122_130)"/>
</g>
</g>
<defs>
<filter id="filter0_d_122_130" x="0" y="0" width="1032" height="761" filterUnits="userSpaceOnUse" color-interpolation-filters="sRGB">
<feFlood flood-opacity="0" result="BackgroundImageFix"/>
<feColorMatrix in="SourceAlpha" type="matrix" values="0 0 0 0 0 0 0 0 0 0 0 0 0 0 0 0 0 0 127 0" result="hardAlpha"/>
<feOffset dy="4"/>
<feGaussianBlur stdDeviation="2"/>
<feComposite in2="hardAlpha" operator="out"/>
<feColorMatrix type="matrix" values="0 0 0 0 0 0 0 0 0 0 0 0 0 0 0 0 0 0 0.25 0"/>
<feBlend mode="normal" in2="BackgroundImageFix" result="effect1_dropShadow_122_130"/>
<feBlend mode="normal" in="SourceGraphic" in2="effect1_dropShadow_122_130" result="shape"/>
</filter>
<filter id="filter1_f_122_130" x="-605.19" y="-727.19" width="2141.38" height="1500.38" filterUnits="userSpaceOnUse" color-interpolation-filters="sRGB">
<feFlood flood-opacity="0" result="BackgroundImageFix"/>
<feBlend mode="normal" in="SourceGraphic" in2="BackgroundImageFix" result="shape"/>
<feGaussianBlur stdDeviation="200.095" result="effect1_foregroundBlur_122_130"/>
</filter>
<linearGradient id="paint0_linear_122_130" x1="5.5" y1="259" x2="5.5" y2="570.381" gradientUnits="userSpaceOnUse">
<stop stop-color="#F7DD43"/>
<stop offset="1" stop-color="#F7DD43" stop-opacity="0"/>
</linearGradient>
<linearGradient id="paint1_linear_122_130" x1="5.5" y1="259" x2="5.5" y2="570.381" gradientUnits="userSpaceOnUse">
<stop stop-color="#F7DD43"/>
<stop offset="1" stop-color="#F7DD43" stop-opacity="0"/>
</linearGradient>
<linearGradient id="paint2_linear_122_130" x1="5.5" y1="259" x2="5.5" y2="570.381" gradientUnits="userSpaceOnUse">
<stop stop-color="#F7DD43"/>
<stop offset="1" stop-color="#F7DD43" stop-opacity="0"/>
</linearGradient>
<linearGradient id="paint3_linear_122_130" x1="5.5" y1="259" x2="5.5" y2="570.381" gradientUnits="userSpaceOnUse">
<stop stop-color="#F7DD43"/>
<stop offset="1" stop-color="#F7DD43" stop-opacity="0"/>
</linearGradient>
<linearGradient id="paint4_linear_122_130" x1="5.5" y1="259" x2="5.5" y2="570.381" gradientUnits="userSpaceOnUse">
<stop stop-color="#F7DD43"/>
<stop offset="1" stop-color="#F7DD43" stop-opacity="0"/>
</linearGradient>
<linearGradient id="paint5_linear_122_130" x1="5.5" y1="259" x2="5.5" y2="570.381" gradientUnits="userSpaceOnUse">
<stop stop-color="#F7DD43"/>
<stop offset="1" stop-color="#F7DD43" stop-opacity="0"/>
</linearGradient>
<linearGradient id="paint6_linear_122_130" x1="5.5" y1="259" x2="5.5" y2="570.381" gradientUnits="userSpaceOnUse">
<stop stop-color="#F7DD43"/>
<stop offset="1" stop-color="#F7DD43" stop-opacity="0"/>
</linearGradient>
<linearGradient id="paint7_linear_122_130" x1="5.5" y1="259" x2="5.5" y2="570.381" gradientUnits="userSpaceOnUse">
<stop stop-color="#F7DD43"/>
<stop offset="1" stop-color="#F7DD43" stop-opacity="0"/>
</linearGradient>
<linearGradient id="paint8_linear_122_130" x1="5.5" y1="259" x2="5.5" y2="570.381" gradientUnits="userSpaceOnUse">
<stop stop-color="#F7DD43"/>
<stop offset="1" stop-color="#F7DD43" stop-opacity="0"/>
</linearGradient>
<linearGradient id="paint9_linear_122_130" x1="5.5" y1="259" x2="5.5" y2="570.381" gradientUnits="userSpaceOnUse">
<stop stop-color="#F7DD43"/>
<stop offset="1" stop-color="#F7DD43" stop-opacity="0"/>
</linearGradient>
<linearGradient id="paint10_linear_122_130" x1="5.5" y1="259" x2="5.5" y2="570.381" gradientUnits="userSpaceOnUse">
<stop stop-color="#F7DD43"/>
<stop offset="1" stop-color="#F7DD43" stop-opacity="0"/>
</linearGradient>
<linearGradient id="paint11_linear_122_130" x1="5.5" y1="259" x2="5.5" y2="570.381" gradientUnits="userSpaceOnUse">
<stop stop-color="#F7DD43"/>
<stop offset="1" stop-color="#F7DD43" stop-opacity="0"/>
</linearGradient>
<linearGradient id="paint12_linear_122_130" x1="5.5" y1="259" x2="5.5" y2="570.381" gradientUnits="userSpaceOnUse">
<stop stop-color="#F7DD43"/>
<stop offset="1" stop-color="#F7DD43" stop-opacity="0"/>
</linearGradient>
<linearGradient id="paint13_linear_122_130" x1="5.5" y1="259" x2="5.5" y2="570.381" gradientUnits="userSpaceOnUse">
<stop stop-color="#F7DD43"/>
<stop offset="1" stop-color="#F7DD43" stop-opacity="0"/>
</linearGradient>
<linearGradient id="paint14_linear_122_130" x1="5.5" y1="259" x2="5.5" y2="570.381" gradientUnits="userSpaceOnUse">
<stop stop-color="#F7DD43"/>
<stop offset="1" stop-color="#F7DD43" stop-opacity="0"/>
</linearGradient>
<linearGradient id="paint15_linear_122_130" x1="5.5" y1="259" x2="5.5" y2="570.381" gradientUnits="userSpaceOnUse">
<stop stop-color="#F7DD43"/>
<stop offset="1" stop-color="#F7DD43" stop-opacity="0"/>
</linearGradient>
<linearGradient id="paint16_linear_122_130" x1="5.5" y1="259" x2="5.5" y2="570.381" gradientUnits="userSpaceOnUse">
<stop stop-color="#F7DD43"/>
<stop offset="1" stop-color="#F7DD43" stop-opacity="0"/>
</linearGradient>
<linearGradient id="paint17_linear_122_130" x1="5.5" y1="259" x2="5.5" y2="570.381" gradientUnits="userSpaceOnUse">
<stop stop-color="#F7DD43"/>
<stop offset="1" stop-color="#F7DD43" stop-opacity="0"/>
</linearGradient>
<linearGradient id="paint18_linear_122_130" x1="5.5" y1="259" x2="5.5" y2="570.381" gradientUnits="userSpaceOnUse">
<stop stop-color="#F7DD43"/>
<stop offset="1" stop-color="#F7DD43" stop-opacity="0"/>
</linearGradient>
<linearGradient id="paint19_linear_122_130" x1="5.5" y1="259" x2="5.5" y2="570.381" gradientUnits="userSpaceOnUse">
<stop stop-color="#F7DD43"/>
<stop offset="1" stop-color="#F7DD43" stop-opacity="0"/>
</linearGradient>
<linearGradient id="paint20_linear_122_130" x1="5.5" y1="259" x2="5.5" y2="570.381" gradientUnits="userSpaceOnUse">
<stop stop-color="#F7DD43"/>
<stop offset="1" stop-color="#F7DD43" stop-opacity="0"/>
</linearGradient>
<linearGradient id="paint21_linear_122_130" x1="5.5" y1="259" x2="5.5" y2="570.381" gradientUnits="userSpaceOnUse">
<stop stop-color="#F7DD43"/>
<stop offset="1" stop-color="#F7DD43" stop-opacity="0"/>
</linearGradient>
<linearGradient id="paint22_linear_122_130" x1="5.5" y1="259" x2="5.5" y2="570.381" gradientUnits="userSpaceOnUse">
<stop stop-color="#F7DD43"/>
<stop offset="1" stop-color="#F7DD43" stop-opacity="0"/>
</linearGradient>
<linearGradient id="paint23_linear_122_130" x1="5.5" y1="259" x2="5.5" y2="570.381" gradientUnits="userSpaceOnUse">
<stop stop-color="#F7DD43"/>
<stop offset="1" stop-color="#F7DD43" stop-opacity="0"/>
</linearGradient>
<linearGradient id="paint24_linear_122_130" x1="5.5" y1="259" x2="5.5" y2="570.381" gradientUnits="userSpaceOnUse">
<stop stop-color="#F7DD43"/>
<stop offset="1" stop-color="#F7DD43" stop-opacity="0"/>
</linearGradient>
<linearGradient id="paint25_linear_122_130" x1="5.5" y1="259" x2="5.5" y2="570.381" gradientUnits="userSpaceOnUse">
<stop stop-color="#F7DD43"/>
<stop offset="1" stop-color="#F7DD43" stop-opacity="0"/>
</linearGradient>
<linearGradient id="paint26_linear_122_130" x1="5.5" y1="259" x2="5.5" y2="570.381" gradientUnits="userSpaceOnUse">
<stop stop-color="#F7DD43"/>
<stop offset="1" stop-color="#F7DD43" stop-opacity="0"/>
</linearGradient>
<linearGradient id="paint27_linear_122_130" x1="5.5" y1="259" x2="5.5" y2="570.381" gradientUnits="userSpaceOnUse">
<stop stop-color="#F7DD43"/>
<stop offset="1" stop-color="#F7DD43" stop-opacity="0"/>
</linearGradient>
<linearGradient id="paint28_linear_122_130" x1="5.5" y1="259" x2="5.5" y2="570.381" gradientUnits="userSpaceOnUse">
<stop stop-color="#F7DD43"/>
<stop offset="1" stop-color="#F7DD43" stop-opacity="0"/>
</linearGradient>
<linearGradient id="paint29_linear_122_130" x1="5.5" y1="259" x2="5.5" y2="570.381" gradientUnits="userSpaceOnUse">
<stop stop-color="#F7DD43"/>
<stop offset="1" stop-color="#F7DD43" stop-opacity="0"/>
</linearGradient>
<linearGradient id="paint30_linear_122_130" x1="5.5" y1="259" x2="5.5" y2="570.381" gradientUnits="userSpaceOnUse">
<stop stop-color="#F7DD43"/>
<stop offset="1" stop-color="#F7DD43" stop-opacity="0"/>
</linearGradient>
<linearGradient id="paint31_linear_122_130" x1="5.5" y1="259" x2="5.5" y2="570.381" gradientUnits="userSpaceOnUse">
<stop stop-color="#F7DD43"/>
<stop offset="1" stop-color="#F7DD43" stop-opacity="0"/>
</linearGradient>
<linearGradient id="paint32_linear_122_130" x1="5.5" y1="259" x2="5.5" y2="570.381" gradientUnits="userSpaceOnUse">
<stop stop-color="#F7DD43"/>
<stop offset="1" stop-color="#F7DD43" stop-opacity="0"/>
</linearGradient>
<linearGradient id="paint33_linear_122_130" x1="5.5" y1="259" x2="5.5" y2="570.381" gradientUnits="userSpaceOnUse">
<stop stop-color="#F7DD43"/>
<stop offset="1" stop-color="#F7DD43" stop-opacity="0"/>
</linearGradient>
<linearGradient id="paint34_linear_122_130" x1="5.5" y1="259" x2="5.5" y2="570.381" gradientUnits="userSpaceOnUse">
<stop stop-color="#F7DD43"/>
<stop offset="1" stop-color="#F7DD43" stop-opacity="0"/>
</linearGradient>
<linearGradient id="paint35_linear_122_130" x1="5.5" y1="259" x2="5.5" y2="570.381" gradientUnits="userSpaceOnUse">
<stop stop-color="#F7DD43"/>
<stop offset="1" stop-color="#F7DD43" stop-opacity="0"/>
</linearGradient>
<linearGradient id="paint36_linear_122_130" x1="5.5" y1="259" x2="5.5" y2="570.381" gradientUnits="userSpaceOnUse">
<stop stop-color="#F7DD43"/>
<stop offset="1" stop-color="#F7DD43" stop-opacity="0"/>
</linearGradient>
<linearGradient id="paint37_linear_122_130" x1="5.5" y1="259" x2="5.5" y2="570.381" gradientUnits="userSpaceOnUse">
<stop stop-color="#F7DD43"/>
<stop offset="1" stop-color="#F7DD43" stop-opacity="0"/>
</linearGradient>
<linearGradient id="paint38_linear_122_130" x1="5.5" y1="259" x2="5.5" y2="570.381" gradientUnits="userSpaceOnUse">
<stop stop-color="#F7DD43"/>
<stop offset="1" stop-color="#F7DD43" stop-opacity="0"/>
</linearGradient>
<linearGradient id="paint39_linear_122_130" x1="5.5" y1="259" x2="5.5" y2="570.381" gradientUnits="userSpaceOnUse">
<stop stop-color="#F7DD43"/>
<stop offset="1" stop-color="#F7DD43" stop-opacity="0"/>
</linearGradient>
<linearGradient id="paint40_linear_122_130" x1="5.5" y1="259" x2="5.5" y2="570.381" gradientUnits="userSpaceOnUse">
<stop stop-color="#F7DD43"/>
<stop offset="1" stop-color="#F7DD43" stop-opacity="0"/>
</linearGradient>
<linearGradient id="paint41_linear_122_130" x1="5.5" y1="259" x2="5.5" y2="570.381" gradientUnits="userSpaceOnUse">
<stop stop-color="#F7DD43"/>
<stop offset="1" stop-color="#F7DD43" stop-opacity="0"/>
</linearGradient>
<linearGradient id="paint42_linear_122_130" x1="5.5" y1="259" x2="5.5" y2="570.381" gradientUnits="userSpaceOnUse">
<stop stop-color="#F7DD43"/>
<stop offset="1" stop-color="#F7DD43" stop-opacity="0"/>
</linearGradient>
<linearGradient id="paint43_linear_122_130" x1="5.5" y1="259" x2="5.5" y2="570.381" gradientUnits="userSpaceOnUse">
<stop stop-color="#F7DD43"/>
<stop offset="1" stop-color="#F7DD43" stop-opacity="0"/>
</linearGradient>
<linearGradient id="paint44_linear_122_130" x1="5.5" y1="259" x2="5.5" y2="570.381" gradientUnits="userSpaceOnUse">
<stop stop-color="#F7DD43"/>
<stop offset="1" stop-color="#F7DD43" stop-opacity="0"/>
</linearGradient>
<linearGradient id="paint45_linear_122_130" x1="5.5" y1="259" x2="5.5" y2="570.381" gradientUnits="userSpaceOnUse">
<stop stop-color="#F7DD43"/>
<stop offset="1" stop-color="#F7DD43" stop-opacity="0"/>
</linearGradient>
<linearGradient id="paint46_linear_122_130" x1="5.5" y1="259" x2="5.5" y2="570.381" gradientUnits="userSpaceOnUse">
<stop stop-color="#F7DD43"/>
<stop offset="1" stop-color="#F7DD43" stop-opacity="0"/>
</linearGradient>
<linearGradient id="paint47_linear_122_130" x1="891.5" y1="-41" x2="891.5" y2="257.818" gradientUnits="userSpaceOnUse">
<stop stop-color="#F7DD43"/>
<stop offset="1" stop-color="#F7DD43" stop-opacity="0"/>
</linearGradient>
<linearGradient id="paint48_linear_122_130" x1="891.5" y1="-41" x2="891.5" y2="257.818" gradientUnits="userSpaceOnUse">
<stop stop-color="#F7DD43"/>
<stop offset="1" stop-color="#F7DD43" stop-opacity="0"/>
</linearGradient>
<linearGradient id="paint49_linear_122_130" x1="891.5" y1="-41" x2="891.5" y2="257.818" gradientUnits="userSpaceOnUse">
<stop stop-color="#F7DD43"/>
<stop offset="1" stop-color="#F7DD43" stop-opacity="0"/>
</linearGradient>
<linearGradient id="paint50_linear_122_130" x1="891.5" y1="-41" x2="891.5" y2="257.818" gradientUnits="userSpaceOnUse">
<stop stop-color="#F7DD43"/>
<stop offset="1" stop-color="#F7DD43" stop-opacity="0"/>
</linearGradient>
<linearGradient id="paint51_linear_122_130" x1="891.5" y1="-41" x2="891.5" y2="257.818" gradientUnits="userSpaceOnUse">
<stop stop-color="#F7DD43"/>
<stop offset="1" stop-color="#F7DD43" stop-opacity="0"/>
</linearGradient>
<linearGradient id="paint52_linear_122_130" x1="891.5" y1="-41" x2="891.5" y2="257.818" gradientUnits="userSpaceOnUse">
<stop stop-color="#F7DD43"/>
<stop offset="1" stop-color="#F7DD43" stop-opacity="0"/>
</linearGradient>
<linearGradient id="paint53_linear_122_130" x1="891.5" y1="-41" x2="891.5" y2="257.818" gradientUnits="userSpaceOnUse">
<stop stop-color="#F7DD43"/>
<stop offset="1" stop-color="#F7DD43" stop-opacity="0"/>
</linearGradient>
<linearGradient id="paint54_linear_122_130" x1="891.5" y1="-41" x2="891.5" y2="257.818" gradientUnits="userSpaceOnUse">
<stop stop-color="#F7DD43"/>
<stop offset="1" stop-color="#F7DD43" stop-opacity="0"/>
</linearGradient>
<linearGradient id="paint55_linear_122_130" x1="891.5" y1="-41" x2="891.5" y2="257.818" gradientUnits="userSpaceOnUse">
<stop stop-color="#F7DD43"/>
<stop offset="1" stop-color="#F7DD43" stop-opacity="0"/>
</linearGradient>
<linearGradient id="paint56_linear_122_130" x1="891.5" y1="-41" x2="891.5" y2="257.818" gradientUnits="userSpaceOnUse">
<stop stop-color="#F7DD43"/>
<stop offset="1" stop-color="#F7DD43" stop-opacity="0"/>
</linearGradient>
<linearGradient id="paint57_linear_122_130" x1="891.5" y1="-41" x2="891.5" y2="257.818" gradientUnits="userSpaceOnUse">
<stop stop-color="#F7DD43"/>
<stop offset="1" stop-color="#F7DD43" stop-opacity="0"/>
</linearGradient>
<linearGradient id="paint58_linear_122_130" x1="891.5" y1="-41" x2="891.5" y2="257.818" gradientUnits="userSpaceOnUse">
<stop stop-color="#F7DD43"/>
<stop offset="1" stop-color="#F7DD43" stop-opacity="0"/>
</linearGradient>
<linearGradient id="paint59_linear_122_130" x1="891.5" y1="-41" x2="891.5" y2="257.818" gradientUnits="userSpaceOnUse">
<stop stop-color="#F7DD43"/>
<stop offset="1" stop-color="#F7DD43" stop-opacity="0"/>
</linearGradient>
<linearGradient id="paint60_linear_122_130" x1="891.5" y1="-41" x2="891.5" y2="257.818" gradientUnits="userSpaceOnUse">
<stop stop-color="#F7DD43"/>
<stop offset="1" stop-color="#F7DD43" stop-opacity="0"/>
</linearGradient>
<linearGradient id="paint61_linear_122_130" x1="891.5" y1="-41" x2="891.5" y2="257.818" gradientUnits="userSpaceOnUse">
<stop stop-color="#F7DD43"/>
<stop offset="1" stop-color="#F7DD43" stop-opacity="0"/>
</linearGradient>
<linearGradient id="paint62_linear_122_130" x1="891.5" y1="-41" x2="891.5" y2="257.818" gradientUnits="userSpaceOnUse">
<stop stop-color="#F7DD43"/>
<stop offset="1" stop-color="#F7DD43" stop-opacity="0"/>
</linearGradient>
<linearGradient id="paint63_linear_122_130" x1="891.5" y1="-41" x2="891.5" y2="257.818" gradientUnits="userSpaceOnUse">
<stop stop-color="#F7DD43"/>
<stop offset="1" stop-color="#F7DD43" stop-opacity="0"/>
</linearGradient>
<linearGradient id="paint64_linear_122_130" x1="891.5" y1="-41" x2="891.5" y2="257.818" gradientUnits="userSpaceOnUse">
<stop stop-color="#F7DD43"/>
<stop offset="1" stop-color="#F7DD43" stop-opacity="0"/>
</linearGradient>
<linearGradient id="paint65_linear_122_130" x1="891.5" y1="-41" x2="891.5" y2="257.818" gradientUnits="userSpaceOnUse">
<stop stop-color="#F7DD43"/>
<stop offset="1" stop-color="#F7DD43" stop-opacity="0"/>
</linearGradient>
<linearGradient id="paint66_linear_122_130" x1="891.5" y1="-41" x2="891.5" y2="257.818" gradientUnits="userSpaceOnUse">
<stop stop-color="#F7DD43"/>
<stop offset="1" stop-color="#F7DD43" stop-opacity="0"/>
</linearGradient>
<linearGradient id="paint67_linear_122_130" x1="891.5" y1="-41" x2="891.5" y2="257.818" gradientUnits="userSpaceOnUse">
<stop stop-color="#F7DD43"/>
<stop offset="1" stop-color="#F7DD43" stop-opacity="0"/>
</linearGradient>
<linearGradient id="paint68_linear_122_130" x1="891.5" y1="-41" x2="891.5" y2="257.818" gradientUnits="userSpaceOnUse">
<stop stop-color="#F7DD43"/>
<stop offset="1" stop-color="#F7DD43" stop-opacity="0"/>
</linearGradient>
<linearGradient id="paint69_linear_122_130" x1="891.5" y1="-41" x2="891.5" y2="257.818" gradientUnits="userSpaceOnUse">
<stop stop-color="#F7DD43"/>
<stop offset="1" stop-color="#F7DD43" stop-opacity="0"/>
</linearGradient>
<linearGradient id="paint70_linear_122_130" x1="891.5" y1="-41" x2="891.5" y2="257.818" gradientUnits="userSpaceOnUse">
<stop stop-color="#F7DD43"/>
<stop offset="1" stop-color="#F7DD43" stop-opacity="0"/>
</linearGradient>
<linearGradient id="paint71_linear_122_130" x1="891.5" y1="-41" x2="891.5" y2="257.818" gradientUnits="userSpaceOnUse">
<stop stop-color="#F7DD43"/>
<stop offset="1" stop-color="#F7DD43" stop-opacity="0"/>
</linearGradient>
<linearGradient id="paint72_linear_122_130" x1="891.5" y1="-41" x2="891.5" y2="257.818" gradientUnits="userSpaceOnUse">
<stop stop-color="#F7DD43"/>
<stop offset="1" stop-color="#F7DD43" stop-opacity="0"/>
</linearGradient>
<linearGradient id="paint73_linear_122_130" x1="891.5" y1="-41" x2="891.5" y2="257.818" gradientUnits="userSpaceOnUse">
<stop stop-color="#F7DD43"/>
<stop offset="1" stop-color="#F7DD43" stop-opacity="0"/>
</linearGradient>
<linearGradient id="paint74_linear_122_130" x1="891.5" y1="-41" x2="891.5" y2="257.818" gradientUnits="userSpaceOnUse">
<stop stop-color="#F7DD43"/>
<stop offset="1" stop-color="#F7DD43" stop-opacity="0"/>
</linearGradient>
<linearGradient id="paint75_linear_122_130" x1="891.5" y1="-41" x2="891.5" y2="257.818" gradientUnits="userSpaceOnUse">
<stop stop-color="#F7DD43"/>
<stop offset="1" stop-color="#F7DD43" stop-opacity="0"/>
</linearGradient>
<linearGradient id="paint76_linear_122_130" x1="891.5" y1="-41" x2="891.5" y2="257.818" gradientUnits="userSpaceOnUse">
<stop stop-color="#F7DD43"/>
<stop offset="1" stop-color="#F7DD43" stop-opacity="0"/>
</linearGradient>
<linearGradient id="paint77_linear_122_130" x1="891.5" y1="-41" x2="891.5" y2="257.818" gradientUnits="userSpaceOnUse">
<stop stop-color="#F7DD43"/>
<stop offset="1" stop-color="#F7DD43" stop-opacity="0"/>
</linearGradient>
<linearGradient id="paint78_linear_122_130" x1="891.5" y1="-41" x2="891.5" y2="257.818" gradientUnits="userSpaceOnUse">
<stop stop-color="#F7DD43"/>
<stop offset="1" stop-color="#F7DD43" stop-opacity="0"/>
</linearGradient>
<linearGradient id="paint79_linear_122_130" x1="891.5" y1="-41" x2="891.5" y2="257.818" gradientUnits="userSpaceOnUse">
<stop stop-color="#F7DD43"/>
<stop offset="1" stop-color="#F7DD43" stop-opacity="0"/>
</linearGradient>
<linearGradient id="paint80_linear_122_130" x1="891.5" y1="-41" x2="891.5" y2="257.818" gradientUnits="userSpaceOnUse">
<stop stop-color="#F7DD43"/>
<stop offset="1" stop-color="#F7DD43" stop-opacity="0"/>
</linearGradient>
<linearGradient id="paint81_linear_122_130" x1="891.5" y1="-41" x2="891.5" y2="257.818" gradientUnits="userSpaceOnUse">
<stop stop-color="#F7DD43"/>
<stop offset="1" stop-color="#F7DD43" stop-opacity="0"/>
</linearGradient>
<linearGradient id="paint82_linear_122_130" x1="891.5" y1="-41" x2="891.5" y2="257.818" gradientUnits="userSpaceOnUse">
<stop stop-color="#F7DD43"/>
<stop offset="1" stop-color="#F7DD43" stop-opacity="0"/>
</linearGradient>
<linearGradient id="paint83_linear_122_130" x1="891.5" y1="-41" x2="891.5" y2="257.818" gradientUnits="userSpaceOnUse">
<stop stop-color="#F7DD43"/>
<stop offset="1" stop-color="#F7DD43" stop-opacity="0"/>
</linearGradient>
<linearGradient id="paint84_linear_122_130" x1="891.5" y1="-41" x2="891.5" y2="257.818" gradientUnits="userSpaceOnUse">
<stop stop-color="#F7DD43"/>
<stop offset="1" stop-color="#F7DD43" stop-opacity="0"/>
</linearGradient>
<linearGradient id="paint85_linear_122_130" x1="891.5" y1="-41" x2="891.5" y2="257.818" gradientUnits="userSpaceOnUse">
<stop stop-color="#F7DD43"/>
<stop offset="1" stop-color="#F7DD43" stop-opacity="0"/>
</linearGradient>
<linearGradient id="paint86_linear_122_130" x1="891.5" y1="-41" x2="891.5" y2="257.818" gradientUnits="userSpaceOnUse">
<stop stop-color="#F7DD43"/>
<stop offset="1" stop-color="#F7DD43" stop-opacity="0"/>
</linearGradient>
<linearGradient id="paint87_linear_122_130" x1="891.5" y1="-41" x2="891.5" y2="257.818" gradientUnits="userSpaceOnUse">
<stop stop-color="#F7DD43"/>
<stop offset="1" stop-color="#F7DD43" stop-opacity="0"/>
</linearGradient>
<linearGradient id="paint88_linear_122_130" x1="891.5" y1="-41" x2="891.5" y2="257.818" gradientUnits="userSpaceOnUse">
<stop stop-color="#F7DD43"/>
<stop offset="1" stop-color="#F7DD43" stop-opacity="0"/>
</linearGradient>
<linearGradient id="paint89_linear_122_130" x1="891.5" y1="-41" x2="891.5" y2="257.818" gradientUnits="userSpaceOnUse">
<stop stop-color="#F7DD43"/>
<stop offset="1" stop-color="#F7DD43" stop-opacity="0"/>
</linearGradient>
<linearGradient id="paint90_linear_122_130" x1="891.5" y1="-41" x2="891.5" y2="257.818" gradientUnits="userSpaceOnUse">
<stop stop-color="#F7DD43"/>
<stop offset="1" stop-color="#F7DD43" stop-opacity="0"/>
</linearGradient>
<linearGradient id="paint91_linear_122_130" x1="891.5" y1="-41" x2="891.5" y2="257.818" gradientUnits="userSpaceOnUse">
<stop stop-color="#F7DD43"/>
<stop offset="1" stop-color="#F7DD43" stop-opacity="0"/>
</linearGradient>
<linearGradient id="paint92_linear_122_130" x1="891.5" y1="-41" x2="891.5" y2="257.818" gradientUnits="userSpaceOnUse">
<stop stop-color="#F7DD43"/>
<stop offset="1" stop-color="#F7DD43" stop-opacity="0"/>
</linearGradient>
<linearGradient id="paint93_linear_122_130" x1="891.5" y1="-41" x2="891.5" y2="257.818" gradientUnits="userSpaceOnUse">
<stop stop-color="#F7DD43"/>
<stop offset="1" stop-color="#F7DD43" stop-opacity="0"/>
</linearGradient>
<clipPath id="clip0_122_130">
<rect width="1024" height="753" fill="white" transform="translate(4)"/>
</clipPath>
</defs>
</svg>
